<?xml version="1.0" encoding="UTF-8" standalone="no"?>
<!-- Generator: Adobe Illustrator 16.0.0, SVG Export Plug-In . SVG Version: 6.00 Build 0)  -->

<svg
   xmlns:dc="http://purl.org/dc/elements/1.1/"
   xmlns:cc="http://creativecommons.org/ns#"
   xmlns:rdf="http://www.w3.org/1999/02/22-rdf-syntax-ns#"
   xmlns:svg="http://www.w3.org/2000/svg"
   xmlns="http://www.w3.org/2000/svg"
   xmlns:sodipodi="http://sodipodi.sourceforge.net/DTD/sodipodi-0.dtd"
   xmlns:inkscape="http://www.inkscape.org/namespaces/inkscape"
   version="1.1"
   id="Capa_1"
   x="0px"
   y="0px"
   width="737"
   height="533.33301"
   viewBox="0 0 736.99999 533.33299"
   xml:space="preserve"
   inkscape:version="0.91 r13725"
   sodipodi:docname="calburned.svg"><metadata
     id="metadata41"><rdf:RDF><cc:Work
         rdf:about=""><dc:format>image/svg+xml</dc:format><dc:type
           rdf:resource="http://purl.org/dc/dcmitype/StillImage" /><dc:title></dc:title></cc:Work></rdf:RDF></metadata><defs
     id="defs39" /><sodipodi:namedview
     pagecolor="#ffffff"
     bordercolor="#666666"
     borderopacity="1"
     objecttolerance="10"
     gridtolerance="10"
     guidetolerance="10"
     inkscape:pageopacity="0"
     inkscape:pageshadow="2"
     inkscape:window-width="1600"
     inkscape:window-height="847"
     id="namedview37"
     showgrid="false"
     inkscape:zoom="0.44250027"
     inkscape:cx="-145.01402"
     inkscape:cy="266.66649"
     inkscape:window-x="-8"
     inkscape:window-y="-8"
     inkscape:window-maximized="1"
     inkscape:current-layer="g3"
     fit-margin-top="0"
     fit-margin-left="0"
     fit-margin-right="0"
     fit-margin-bottom="0" /><g
     id="g3"
     style="fill:#e05b49;fill-opacity:1"
     transform="translate(98.197624,4.3749999e-6)"><path
       d="m 165.494,533.333 c -35.545,-73.962 -16.616,-116.343 10.703,-156.272 29.917,-43.728 37.627,-87.013 37.627,-87.013 0,0 23.518,30.573 14.11,78.39 41.548,-46.25 49.389,-119.938 43.115,-148.159 93.914,65.63 134.051,207.737 79.96,313.054 287.695,-162.776 71.562,-406.339 33.934,-433.775 12.543,27.435 14.922,73.88 -10.416,96.42 C 331.635,33.333 225.583,0 225.583,0 238.126,83.877 180.117,175.596 124.179,244.13 122.214,210.684 120.126,187.605 102.538,155.599 98.59,216.357 52.157,265.884 39.583,326.76 22.551,409.2 52.341,469.562 165.494,533.333 Z"
       id="path5"
       style="fill:#e05b49;fill-opacity:1"
       inkscape:connector-curvature="0" /></g><g
     id="g7"
     transform="translate(98.197624,4.3749999e-6)" /><g
     id="g9"
     transform="translate(98.197624,4.3749999e-6)" /><g
     id="g11"
     transform="translate(98.197624,4.3749999e-6)" /><g
     id="g13"
     transform="translate(98.197624,4.3749999e-6)" /><g
     id="g15"
     transform="translate(98.197624,4.3749999e-6)" /><g
     id="g17"
     transform="translate(98.197624,4.3749999e-6)" /><g
     id="g19"
     transform="translate(98.197624,4.3749999e-6)" /><g
     id="g21"
     transform="translate(98.197624,4.3749999e-6)" /><g
     id="g23"
     transform="translate(98.197624,4.3749999e-6)" /><g
     id="g25"
     transform="translate(98.197624,4.3749999e-6)" /><g
     id="g27"
     transform="translate(98.197624,4.3749999e-6)" /><g
     id="g29"
     transform="translate(98.197624,4.3749999e-6)" /><g
     id="g31"
     transform="translate(98.197624,4.3749999e-6)" /><g
     id="g33"
     transform="translate(98.197624,4.3749999e-6)" /><g
     id="g35"
     transform="translate(98.197624,4.3749999e-6)" /><text
     xml:space="preserve"
     style="font-style:normal;font-weight:normal;font-size:94.24217987px;line-height:125%;font-family:sans-serif;letter-spacing:0px;word-spacing:0px;fill:#000000;fill-opacity:1;stroke:none;stroke-width:1px;stroke-linecap:butt;stroke-linejoin:miter;stroke-opacity:1"
     x="270.18997"
     y="495.53085"
     id="text3369"
     sodipodi:linespacing="125%"
     transform="scale(0.97166196,1.0291645)"><tspan
       sodipodi:role="line"
       id="tspan3371"
       x="270.18997"
       y="495.53085"
       style="font-style:normal;font-variant:normal;font-weight:bold;font-stretch:normal;font-size:94.24250031px;line-height:125%;font-family:sans-serif;-inkscape-font-specification:'sans-serif, Bold';text-align:start;writing-mode:lr-tb;text-anchor:start">CAL</tspan></text>
</svg>