<?xml version="1.0" encoding="UTF-8" standalone="no"?>
<!-- Generator: Adobe Illustrator 18.1.1, SVG Export Plug-In . SVG Version: 6.00 Build 0)  -->

<svg
   xmlns:dc="http://purl.org/dc/elements/1.1/"
   xmlns:cc="http://creativecommons.org/ns#"
   xmlns:rdf="http://www.w3.org/1999/02/22-rdf-syntax-ns#"
   xmlns:svg="http://www.w3.org/2000/svg"
   xmlns="http://www.w3.org/2000/svg"
   xmlns:sodipodi="http://sodipodi.sourceforge.net/DTD/sodipodi-0.dtd"
   xmlns:inkscape="http://www.inkscape.org/namespaces/inkscape"
   version="1.1"
   id="Capa_1"
   x="0px"
   y="0px"
   viewBox="0 0 35.469003 25.626"
   xml:space="preserve"
   inkscape:version="0.91 r13725"
   sodipodi:docname="couch.svg"
   width="35.469002"
   height="25.625999"><metadata
     id="metadata49"><rdf:RDF><cc:Work
         rdf:about=""><dc:format>image/svg+xml</dc:format><dc:type
           rdf:resource="http://purl.org/dc/dcmitype/StillImage" /><dc:title></dc:title></cc:Work></rdf:RDF></metadata><defs
     id="defs47" /><sodipodi:namedview
     pagecolor="#ffffff"
     bordercolor="#666666"
     borderopacity="1"
     objecttolerance="10"
     gridtolerance="10"
     guidetolerance="10"
     inkscape:pageopacity="0"
     inkscape:pageshadow="2"
     inkscape:window-width="1600"
     inkscape:window-height="847"
     id="namedview45"
     showgrid="false"
     inkscape:zoom="9.2093969"
     inkscape:cx="-3.2032497"
     inkscape:cy="12.813"
     inkscape:window-x="-8"
     inkscape:window-y="-8"
     inkscape:window-maximized="1"
     inkscape:current-layer="Capa_1" /><rect
     style="fill:#ffe300;fill-opacity:0.80000001;stroke:none;stroke-width:25;stroke-miterlimit:4;stroke-dasharray:none;stroke-opacity:1"
     id="rect4157"
     width="35.615795"
     height="25.625999"
     x="3.237536e-009"
     y="-1.0801229e-008" /><g
     id="g3"
     transform="translate(5.3484915,0)"><path
       style="fill:#803300"
       d="m 20.813,22.22 c -0.551,0 -1,-0.449 -1,-1 l 0,-1 1,0 c 1.594,0 2,-0.542 2,-0.542 l 0,1.542 c 0,0.551 -0.449,1 -1,1 l -1,0 z"
       id="path5"
       inkscape:connector-curvature="0" /><path
       style="fill:#803300"
       d="m 3.813,22.22 c -0.551,0 -1,-0.449 -1,-1 l 0,-1.542 c 0,0 0.406,0.542 2,0.542 l 1,0 0,1 c 0,0.551 -0.449,1 -1,1 l -1,0 z"
       id="path7"
       inkscape:connector-curvature="0" /><g
       id="g9"><path
         style="fill:#030104"
         d="m 25.626,11.72 c 0,-1.277 -1.036,-2.313 -2.313,-2.313 -0.992,0 -1.832,0.628 -2.16,1.506 l -1.097,2.457 c -0.082,-0.051 -3.399,-1.093 -7.181,-1.093 -3.782,0 -7.23,1.047 -7.314,1.099 L 4.522,11.071 C 4.241,10.113 3.363,9.408 2.313,9.408 1.036,9.408 0,10.443 0,11.721 c 0,1.063 0.722,1.949 1.699,2.22 l 0.428,3.679 c 0.452,1.561 2.686,1.6 2.686,1.6 l 16,0 c 0,0 2.234,-0.039 2.686,-1.602 l 0.428,-3.679 c 0.976,-0.27 1.699,-1.156 1.699,-2.219 z"
         id="path11"
         inkscape:connector-curvature="0" /></g><path
       style="fill:#030104"
       d="m 2.313,8.207 c 1.512,0 2.869,0.998 3.334,2.438 l 0.506,1.125 c 0.979,-0.353 4.499,-0.693 6.723,-0.693 2.163,0 5.633,0.316 6.593,0.666 l 0.575,-1.289 c 0.521,-1.346 1.83,-2.247 3.27,-2.247 0.106,0 0.207,0.022 0.312,0.031 0,-0.006 10e-4,-0.013 10e-4,-0.019 0,-2.658 -2.154,-4.813 -4.813,-4.813 -0.334,0 -11.666,0 -12,0 -2.658,0 -4.813,2.154 -4.813,4.813 0,0.006 10e-4,0.013 10e-4,0.019 C 2.106,8.23 2.207,8.207 2.313,8.207 Z"
       id="path13"
       inkscape:connector-curvature="0" /></g><g
     id="g15"
     transform="translate(5.3484915,0)" /><g
     id="g17"
     transform="translate(5.3484915,0)" /><g
     id="g19"
     transform="translate(5.3484915,0)" /><g
     id="g21"
     transform="translate(5.3484915,0)" /><g
     id="g23"
     transform="translate(5.3484915,0)" /><g
     id="g25"
     transform="translate(5.3484915,0)" /><g
     id="g27"
     transform="translate(5.3484915,0)" /><g
     id="g29"
     transform="translate(5.3484915,0)" /><g
     id="g31"
     transform="translate(5.3484915,0)" /><g
     id="g33"
     transform="translate(5.3484915,0)" /><g
     id="g35"
     transform="translate(5.3484915,0)" /><g
     id="g37"
     transform="translate(5.3484915,0)" /><g
     id="g39"
     transform="translate(5.3484915,0)" /><g
     id="g41"
     transform="translate(5.3484915,0)" /><g
     id="g43"
     transform="translate(5.3484915,0)" /><path
     style="fill:#e05b49;fill-opacity:1"
     d="M 9.2369935,19.016413 C 8.9569445,18.939284 8.5562865,18.770169 8.3466425,18.640602 7.6813265,18.229414 7.5617835,17.901667 7.3144162,15.810581 7.1908235,14.765806 7.0501732,13.897814 7.0018599,13.88171 6.2777404,13.640337 5.5836608,12.859894 5.4632397,12.151643 5.151126,10.315959 7.0027193,8.9267593 8.6795775,9.7385126 c 0.596248,0.2886384 0.790422,0.5691614 1.5181055,2.1932024 0.326896,0.729565 0.627784,1.360211 0.66864,1.401436 0.04086,0.04122 0.412218,-0.01901 0.825248,-0.133852 0.413031,-0.114843 1.512452,-0.342032 2.443157,-0.504865 1.501554,-0.262706 1.961315,-0.295865 4.081056,-0.294327 2.567619,0.0019 4.137485,0.190862 6.210572,0.747707 0.525812,0.141237 0.986412,0.223851 1.023557,0.183588 0.03714,-0.04026 0.327568,-0.659562 0.645385,-1.376222 0.709085,-1.598947 0.861455,-1.827383 1.448263,-2.1712757 1.267433,-0.7427647 3.042415,0.046815 3.298701,1.4673877 0.185099,1.025987 -0.263149,1.995413 -1.113727,2.408655 -0.543793,0.264195 -0.488344,0.08212 -0.770509,2.530038 -0.236433,2.051169 -0.511827,2.456917 -1.922475,2.832467 -0.800231,0.213041 -17.023079,0.207536 -17.7985575,-0.006 z"
     id="path4177"
     inkscape:connector-curvature="0" /><path
     style="fill:#e05b49;fill-opacity:1"
     d="M 11.004915,10.5645 C 10.578328,9.6734367 10.352185,9.3362073 9.9727055,9.0252535 9.3704025,8.5317116 8.5446755,8.2090066 7.8841185,8.2090066 l -0.502417,0 0.07189,-0.6243623 c 0.218784,-1.9002291 1.917755,-3.682709 3.8547395,-4.0442083 0.781291,-0.1458122 12.925039,-0.1458122 13.706329,0 1.945444,0.3630783 3.635,2.1356791 3.854739,4.0442083 l 0.07189,0.6243623 -0.499508,0 c -0.76525,0 -1.666549,0.3881969 -2.242059,0.9656734 -0.46393,0.4655147 -0.695844,0.859212 -1.212769,2.058801 -0.159147,0.369322 -0.244982,0.456895 -0.392384,0.400332 -0.666099,-0.255606 -4.340359,-0.601603 -6.388631,-0.601603 -1.98063,0 -5.424841,0.325307 -6.417113,0.606098 -0.213054,0.06029 -0.294144,-0.05079 -0.783902,-1.073808 z"
     id="path4179"
     inkscape:connector-curvature="0" /><path
     style="fill:#c83737;fill-opacity:1"
     d="M 11.018912,10.528038 C 10.715877,9.9393694 10.305542,9.3018921 10.107056,9.1114222 9.5709515,8.596967 8.6610775,8.2113311 7.9803885,8.2100674 l -0.571353,-0.00106 0.0653,-0.4614852 c 0.209116,-1.4778759 0.98947,-2.6788322 2.280731,-3.5100203 1.1348775,-0.7305224 1.1062475,-0.728043 8.4064255,-0.728043 5.893209,0 6.639252,0.019307 7.222244,0.1869078 0.826611,0.2376376 1.511498,0.6740986 2.199803,1.4018792 0.751085,0.7941623 1.108529,1.5426898 1.26511,2.6492755 l 0.0653,0.4614852 -0.571353,8.57e-5 c -0.755806,1.086e-4 -1.735114,0.4630731 -2.296502,1.0856537 -0.232173,0.2574796 -0.615469,0.880715 -0.85177,1.384968 -0.404483,0.863144 -0.446522,0.913238 -0.718008,0.855608 -1.515127,-0.321626 -3.200011,-0.440479 -6.260531,-0.441625 -3.134342,-0.0012 -4.006725,0.06002 -6.254737,0.438749 l -0.391162,0.0659 -0.550974,-1.070307 z"
     id="path4181"
     inkscape:connector-curvature="0" /><path
     style="fill:#c83737;fill-opacity:1"
     d="M 12.026454,19.067464 C 9.1387905,18.998787 8.8960595,18.963031 8.2644595,18.513292 7.7670745,18.159123 7.6341375,17.762733 7.3514945,15.79103 7.2053888,14.771799 7.0858474,13.92162 7.0858474,13.901743 c 0,-0.01988 -0.1741775,-0.118793 -0.3870613,-0.219813 C 6.1745954,13.433185 5.5934932,12.64926 5.507318,12.074603 5.2787849,10.550635 6.6950551,9.2663679 8.2047895,9.6285477 c 0.797854,0.1914022 1.21462,0.6767233 1.9073195,2.2210613 0.320708,0.715002 0.638318,1.35612 0.705801,1.424706 0.09223,0.09373 0.635065,0.01519 2.185806,-0.316274 l 2.06311,-0.440978 2.877496,-0.0095 c 3.053263,-0.01006 3.90203,0.06723 5.864879,0.53403 0.626361,0.14896 1.25065,0.296678 1.387311,0.328261 0.22708,0.05248 0.312437,-0.07707 0.991437,-1.504747 0.809636,-1.702355 1.077189,-2.0101198 1.949244,-2.2422091 1.066595,-0.2838646 2.334998,0.4505671 2.621456,1.5178771 0.250531,0.933457 -0.233205,2.083685 -1.037638,2.467292 -0.468059,0.223202 -0.55138,0.453852 -0.756186,2.093267 -0.284981,2.281183 -0.475961,2.701793 -1.412235,3.110269 -0.363001,0.15837 -0.949809,0.20145 -3.636107,0.266944 -3.671654,0.08952 -7.822177,0.08564 -11.890029,-0.0111 z"
     id="path4183"
     inkscape:connector-curvature="0" /><path
     style="fill:#ffe300;fill-opacity:0;stroke:none;stroke-width:25;stroke-miterlimit:4;stroke-dasharray:none;stroke-opacity:1"
     d="m 0.05429264,12.823858 0,-12.75870743 17.75360536,0 17.753606,0 0,12.75870743 0,12.758707 -17.753606,0 -17.75360536,0 0,-12.758707 z M 10.856214,21.957109 c 0.283461,-0.283462 0.418828,-0.796124 0.363521,-1.376737 l -0.03551,-0.372752 -1.14014,-0.0612 C 9.2862187,20.105747 8.7874356,20.023832 8.5564411,19.902109 8.3653117,19.801393 8.1820749,19.718989 8.1492483,19.718989 c -0.1392738,0 -0.05192,1.654572 0.1031901,1.954521 0.2375425,0.459356 0.4424732,0.535956 1.4436859,0.539626 0.8071587,0.003 0.9277077,-0.02364 1.1600897,-0.256027 z m 17.040413,-0.07476 c 0.253739,-0.30155 0.281114,-0.423154 0.281114,-1.248724 0,-0.503052 -0.01692,-0.914639 -0.03761,-0.914639 -0.02069,0 -0.203922,0.08394 -0.407193,0.186544 -0.253904,0.128155 -0.717951,0.199984 -1.482577,0.229486 l -1.112994,0.04294 0,0.685154 c 0,0.578685 0.04368,0.73707 0.281114,1.019239 0.27479,0.32657 0.302668,0.334086 1.239073,0.334086 0.936404,0 0.964282,-0.0075 1.239072,-0.334086 z m -0.86093,-2.764645 c 0.775394,-0.201965 1.27634,-0.497531 1.590125,-0.938202 0.189867,-0.266644 0.278544,-0.694985 0.463427,-2.238487 l 0.228632,-1.908747 0.488403,-0.285475 c 1.288772,-0.753297 1.586718,-2.447498 0.623377,-3.544683 -0.922595,-1.0507763 -2.510775,-1.0837168 -3.471325,-0.072 -0.163039,0.171724 -0.567248,0.915571 -0.898241,1.652994 -0.330992,0.737422 -0.624154,1.376931 -0.651472,1.421131 -0.02732,0.0442 -0.478214,-0.03031 -1.001993,-0.165574 -3.147444,-0.812827 -6.578039,-1.002245 -9.693397,-0.535216 -1.100607,0.164995 -3.235957,0.611805 -3.595373,0.752314 -0.139334,0.05447 -0.301919,-0.214656 -0.798585,-1.321896 C 9.5784632,10.282342 9.3353105,9.9345563 8.7097415,9.6317236 6.922416,8.7664942 4.9060133,10.373653 5.3862168,12.280714 c 0.1420053,0.563954 0.801646,1.371693 1.2830315,1.57109 0.3609886,0.149526 0.3217031,-0.0072 0.6091254,2.429651 0.2031504,1.72235 0.4043772,2.138298 1.244911,2.573305 0.7649048,0.395866 1.0930571,0.410288 9.5604083,0.420181 7.149114,0.0084 8.400673,-0.01363 8.952004,-0.157234 z M 12.290123,11.638343 c 2.90402,-0.604157 9.167269,-0.603065 11.858795,0.0021 0.382038,0.08589 0.702985,0.142992 0.713216,0.126884 0.01023,-0.01611 0.209086,-0.463242 0.441899,-0.993634 0.699644,-1.5939222 1.792791,-2.4550667 3.157036,-2.4870081 l 0.607337,-0.01422 -0.06732,-0.5074863 C 28.761076,5.9556602 27.681022,4.4627506 26.109028,3.7673827 25.842644,3.6495479 25.307376,3.5016568 24.919545,3.4387355 24.018595,3.2925666 12.298068,3.2838022 11.413662,3.4286361 9.6002488,3.7256081 8.082932,5.0473853 7.5351908,6.8072811 7.2769252,7.6370899 7.2561222,8.3689722 7.4933891,8.2779243 c 0.2487971,-0.095472 1.2192361,0.1188092 1.759081,0.3884209 0.8623629,0.430685 1.3293009,1.0608961 2.0318399,2.7423098 0.08817,0.211006 0.18403,0.383648 0.213034,0.383648 0.029,0 0.385755,-0.06928 0.792779,-0.15396 z"
     id="path4159"
     inkscape:connector-curvature="0" /><path
     style="fill:#ffe300;fill-opacity:0;stroke:none;stroke-width:25;stroke-miterlimit:4;stroke-dasharray:none;stroke-opacity:1"
     d="m 0.05429264,12.823858 0,-12.75870743 17.75360536,0 17.753606,0 0,12.75870743 0,12.758707 -17.753606,0 -17.75360536,0 0,-12.758707 z M 10.856214,21.957109 c 0.283461,-0.283462 0.418828,-0.796124 0.363521,-1.376737 l -0.03551,-0.372752 -1.14014,-0.0612 C 9.2862187,20.105747 8.7874356,20.023832 8.5564411,19.902109 8.3653117,19.801393 8.1820749,19.718989 8.1492483,19.718989 c -0.1392738,0 -0.05192,1.654572 0.1031901,1.954521 0.2375425,0.459356 0.4424732,0.535956 1.4436859,0.539626 0.8071587,0.003 0.9277077,-0.02364 1.1600897,-0.256027 z m 17.040413,-0.07476 c 0.253739,-0.30155 0.281114,-0.423154 0.281114,-1.248724 0,-0.503052 -0.01692,-0.914639 -0.03761,-0.914639 -0.02069,0 -0.203922,0.08394 -0.407193,0.186544 -0.253904,0.128155 -0.717951,0.199984 -1.482577,0.229486 l -1.112994,0.04294 0,0.685154 c 0,0.578685 0.04368,0.73707 0.281114,1.019239 0.27479,0.32657 0.302668,0.334086 1.239073,0.334086 0.936404,0 0.964282,-0.0075 1.239072,-0.334086 z m -0.86093,-2.764645 c 0.775394,-0.201965 1.27634,-0.497531 1.590125,-0.938202 0.189867,-0.266644 0.278544,-0.694985 0.463427,-2.238487 l 0.228632,-1.908747 0.488403,-0.285475 c 1.288772,-0.753297 1.586718,-2.447498 0.623377,-3.544683 -0.922595,-1.0507763 -2.510775,-1.0837168 -3.471325,-0.072 -0.163039,0.171724 -0.567248,0.915571 -0.898241,1.652994 -0.330992,0.737422 -0.624154,1.376931 -0.651472,1.421131 -0.02732,0.0442 -0.478214,-0.03031 -1.001993,-0.165574 -3.147444,-0.812827 -6.578039,-1.002245 -9.693397,-0.535216 -1.100607,0.164995 -3.235957,0.611805 -3.595373,0.752314 -0.139334,0.05447 -0.301919,-0.214656 -0.798585,-1.321896 C 9.5784632,10.282342 9.3353105,9.9345563 8.7097415,9.6317236 6.922416,8.7664942 4.9060133,10.373653 5.3862168,12.280714 c 0.1420053,0.563954 0.801646,1.371693 1.2830315,1.57109 0.3609886,0.149526 0.3217031,-0.0072 0.6091254,2.429651 0.2031504,1.72235 0.4043772,2.138298 1.244911,2.573305 0.7649048,0.395866 1.0930571,0.410288 9.5604083,0.420181 7.149114,0.0084 8.400673,-0.01363 8.952004,-0.157234 z M 12.290123,11.638343 c 2.90402,-0.604157 9.167269,-0.603065 11.858795,0.0021 0.382038,0.08589 0.702985,0.142992 0.713216,0.126884 0.01023,-0.01611 0.209086,-0.463242 0.441899,-0.993634 0.699644,-1.5939222 1.792791,-2.4550667 3.157036,-2.4870081 l 0.607337,-0.01422 -0.06732,-0.5074863 C 28.761076,5.9556602 27.681022,4.4627506 26.109028,3.7673827 25.842644,3.6495479 25.307376,3.5016568 24.919545,3.4387355 24.018595,3.2925666 12.298068,3.2838022 11.413662,3.4286361 9.6002488,3.7256081 8.082932,5.0473853 7.5351908,6.8072811 7.2769252,7.6370899 7.2561222,8.3689722 7.4933891,8.2779243 c 0.2487971,-0.095472 1.2192361,0.1188092 1.759081,0.3884209 0.8623629,0.430685 1.3293009,1.0608961 2.0318399,2.7423098 0.08817,0.211006 0.18403,0.383648 0.213034,0.383648 0.029,0 0.385755,-0.06928 0.792779,-0.15396 z"
     id="path4161"
     inkscape:connector-curvature="0" /><path
     style="fill:#ffe300;fill-opacity:0;stroke:none;stroke-width:25;stroke-miterlimit:4;stroke-dasharray:none;stroke-opacity:1"
     d="m 0.05429264,12.823858 0,-12.75870743 17.75360536,0 17.753606,0 0,12.75870743 0,12.758707 -17.753606,0 -17.75360536,0 0,-12.758707 z M 10.856214,21.957109 c 0.283461,-0.283462 0.418828,-0.796124 0.363521,-1.376737 l -0.03551,-0.372752 -1.14014,-0.0612 C 9.2862187,20.105747 8.7874356,20.023832 8.5564411,19.902109 8.3653117,19.801393 8.1820749,19.718989 8.1492483,19.718989 c -0.1392738,0 -0.05192,1.654572 0.1031901,1.954521 0.2375425,0.459356 0.4424732,0.535956 1.4436859,0.539626 0.8071587,0.003 0.9277077,-0.02364 1.1600897,-0.256027 z m 17.040413,-0.07476 c 0.253739,-0.30155 0.281114,-0.423154 0.281114,-1.248724 0,-0.503052 -0.01692,-0.914639 -0.03761,-0.914639 -0.02069,0 -0.203922,0.08394 -0.407193,0.186544 -0.253904,0.128155 -0.717951,0.199984 -1.482577,0.229486 l -1.112994,0.04294 0,0.685154 c 0,0.578685 0.04368,0.73707 0.281114,1.019239 0.27479,0.32657 0.302668,0.334086 1.239073,0.334086 0.936404,0 0.964282,-0.0075 1.239072,-0.334086 z m -0.86093,-2.764645 c 0.775394,-0.201965 1.27634,-0.497531 1.590125,-0.938202 0.189867,-0.266644 0.278544,-0.694985 0.463427,-2.238487 l 0.228632,-1.908747 0.488403,-0.285475 c 1.288772,-0.753297 1.586718,-2.447498 0.623377,-3.544683 -0.922595,-1.0507763 -2.510775,-1.0837168 -3.471325,-0.072 -0.163039,0.171724 -0.567248,0.915571 -0.898241,1.652994 -0.330992,0.737422 -0.624154,1.376931 -0.651472,1.421131 -0.02732,0.0442 -0.478214,-0.03031 -1.001993,-0.165574 -3.147444,-0.812827 -6.578039,-1.002245 -9.693397,-0.535216 -1.100607,0.164995 -3.235957,0.611805 -3.595373,0.752314 -0.139334,0.05447 -0.301919,-0.214656 -0.798585,-1.321896 C 9.5784632,10.282342 9.3353105,9.9345563 8.7097415,9.6317236 6.922416,8.7664942 4.9060133,10.373653 5.3862168,12.280714 c 0.1420053,0.563954 0.801646,1.371693 1.2830315,1.57109 0.3609886,0.149526 0.3217031,-0.0072 0.6091254,2.429651 0.2031504,1.72235 0.4043772,2.138298 1.244911,2.573305 0.7649048,0.395866 1.0930571,0.410288 9.5604083,0.420181 7.149114,0.0084 8.400673,-0.01363 8.952004,-0.157234 z M 12.290123,11.638343 c 2.90402,-0.604157 9.167269,-0.603065 11.858795,0.0021 0.382038,0.08589 0.702985,0.142992 0.713216,0.126884 0.01023,-0.01611 0.209086,-0.463242 0.441899,-0.993634 0.699644,-1.5939222 1.792791,-2.4550667 3.157036,-2.4870081 l 0.607337,-0.01422 -0.06732,-0.5074863 C 28.761076,5.9556602 27.681022,4.4627506 26.109028,3.7673827 25.842644,3.6495479 25.307376,3.5016568 24.919545,3.4387355 24.018595,3.2925666 12.298068,3.2838022 11.413662,3.4286361 9.6002488,3.7256081 8.082932,5.0473853 7.5351908,6.8072811 7.2769252,7.6370899 7.2561222,8.3689722 7.4933891,8.2779243 c 0.2487971,-0.095472 1.2192361,0.1188092 1.759081,0.3884209 0.8623629,0.430685 1.3293009,1.0608961 2.0318399,2.7423098 0.08817,0.211006 0.18403,0.383648 0.213034,0.383648 0.029,0 0.385755,-0.06928 0.792779,-0.15396 z"
     id="path4163"
     inkscape:connector-curvature="0" /><path
     style="fill:#ffe300;fill-opacity:0;stroke:none;stroke-width:25;stroke-miterlimit:4;stroke-dasharray:none;stroke-opacity:1"
     d="m 0.05429264,12.823858 0,-12.75870743 17.75360536,0 17.753606,0 0,12.75870743 0,12.758707 -17.753606,0 -17.75360536,0 0,-12.758707 z M 10.856214,21.957109 c 0.283461,-0.283462 0.418828,-0.796124 0.363521,-1.376737 l -0.03551,-0.372752 -1.14014,-0.0612 C 9.2862187,20.105747 8.7874356,20.023832 8.5564411,19.902109 8.3653117,19.801393 8.1820749,19.718989 8.1492483,19.718989 c -0.1392738,0 -0.05192,1.654572 0.1031901,1.954521 0.2375425,0.459356 0.4424732,0.535956 1.4436859,0.539626 0.8071587,0.003 0.9277077,-0.02364 1.1600897,-0.256027 z m 17.040413,-0.07476 c 0.253739,-0.30155 0.281114,-0.423154 0.281114,-1.248724 0,-0.503052 -0.01692,-0.914639 -0.03761,-0.914639 -0.02069,0 -0.203922,0.08394 -0.407193,0.186544 -0.253904,0.128155 -0.717951,0.199984 -1.482577,0.229486 l -1.112994,0.04294 0,0.685154 c 0,0.578685 0.04368,0.73707 0.281114,1.019239 0.27479,0.32657 0.302668,0.334086 1.239073,0.334086 0.936404,0 0.964282,-0.0075 1.239072,-0.334086 z m -0.86093,-2.764645 c 0.775394,-0.201965 1.27634,-0.497531 1.590125,-0.938202 0.189867,-0.266644 0.278544,-0.694985 0.463427,-2.238487 l 0.228632,-1.908747 0.488403,-0.285475 c 1.288772,-0.753297 1.586718,-2.447498 0.623377,-3.544683 -0.922595,-1.0507763 -2.510775,-1.0837168 -3.471325,-0.072 -0.163039,0.171724 -0.567248,0.915571 -0.898241,1.652994 -0.330992,0.737422 -0.624154,1.376931 -0.651472,1.421131 -0.02732,0.0442 -0.478214,-0.03031 -1.001993,-0.165574 -3.147444,-0.812827 -6.578039,-1.002245 -9.693397,-0.535216 -1.100607,0.164995 -3.235957,0.611805 -3.595373,0.752314 -0.139334,0.05447 -0.301919,-0.214656 -0.798585,-1.321896 C 9.5784632,10.282342 9.3353105,9.9345563 8.7097415,9.6317236 6.922416,8.7664942 4.9060133,10.373653 5.3862168,12.280714 c 0.1420053,0.563954 0.801646,1.371693 1.2830315,1.57109 0.3609886,0.149526 0.3217031,-0.0072 0.6091254,2.429651 0.2031504,1.72235 0.4043772,2.138298 1.244911,2.573305 0.7649048,0.395866 1.0930571,0.410288 9.5604083,0.420181 7.149114,0.0084 8.400673,-0.01363 8.952004,-0.157234 z M 12.290123,11.638343 c 2.90402,-0.604157 9.167269,-0.603065 11.858795,0.0021 0.382038,0.08589 0.702985,0.142992 0.713216,0.126884 0.01023,-0.01611 0.209086,-0.463242 0.441899,-0.993634 0.699644,-1.5939222 1.792791,-2.4550667 3.157036,-2.4870081 l 0.607337,-0.01422 -0.06732,-0.5074863 C 28.761076,5.9556602 27.681022,4.4627506 26.109028,3.7673827 25.842644,3.6495479 25.307376,3.5016568 24.919545,3.4387355 24.018595,3.2925666 12.298068,3.2838022 11.413662,3.4286361 9.6002488,3.7256081 8.082932,5.0473853 7.5351908,6.8072811 7.2769252,7.6370899 7.2561222,8.3689722 7.4933891,8.2779243 c 0.2487971,-0.095472 1.2192361,0.1188092 1.759081,0.3884209 0.8623629,0.430685 1.3293009,1.0608961 2.0318399,2.7423098 0.08817,0.211006 0.18403,0.383648 0.213034,0.383648 0.029,0 0.385755,-0.06928 0.792779,-0.15396 z"
     id="path4165"
     inkscape:connector-curvature="0" /><path
     style="fill:#ffe300;fill-opacity:0;stroke:none;stroke-width:25;stroke-miterlimit:4;stroke-dasharray:none;stroke-opacity:1"
     d="m 0.05429264,12.823858 0,-12.75870743 17.75360536,0 17.753606,0 0,12.75870743 0,12.758707 -17.753606,0 -17.75360536,0 0,-12.758707 z M 10.856214,21.957109 c 0.283461,-0.283462 0.418828,-0.796124 0.363521,-1.376737 l -0.03551,-0.372752 -1.14014,-0.0612 C 9.2862187,20.105747 8.7874356,20.023832 8.5564411,19.902109 8.3653117,19.801393 8.1820749,19.718989 8.1492483,19.718989 c -0.1392738,0 -0.05192,1.654572 0.1031901,1.954521 0.2375425,0.459356 0.4424732,0.535956 1.4436859,0.539626 0.8071587,0.003 0.9277077,-0.02364 1.1600897,-0.256027 z m 17.040413,-0.07476 c 0.253739,-0.30155 0.281114,-0.423154 0.281114,-1.248724 0,-0.503052 -0.01692,-0.914639 -0.03761,-0.914639 -0.02069,0 -0.203922,0.08394 -0.407193,0.186544 -0.253904,0.128155 -0.717951,0.199984 -1.482577,0.229486 l -1.112994,0.04294 0,0.685154 c 0,0.578685 0.04368,0.73707 0.281114,1.019239 0.27479,0.32657 0.302668,0.334086 1.239073,0.334086 0.936404,0 0.964282,-0.0075 1.239072,-0.334086 z m -0.86093,-2.764645 c 0.775394,-0.201965 1.27634,-0.497531 1.590125,-0.938202 0.189867,-0.266644 0.278544,-0.694985 0.463427,-2.238487 l 0.228632,-1.908747 0.488403,-0.285475 c 1.288772,-0.753297 1.586718,-2.447498 0.623377,-3.544683 -0.922595,-1.0507763 -2.510775,-1.0837168 -3.471325,-0.072 -0.163039,0.171724 -0.567248,0.915571 -0.898241,1.652994 -0.330992,0.737422 -0.624154,1.376931 -0.651472,1.421131 -0.02732,0.0442 -0.478214,-0.03031 -1.001993,-0.165574 -3.147444,-0.812827 -6.578039,-1.002245 -9.693397,-0.535216 -1.100607,0.164995 -3.235957,0.611805 -3.595373,0.752314 -0.139334,0.05447 -0.301919,-0.214656 -0.798585,-1.321896 C 9.5784632,10.282342 9.3353105,9.9345563 8.7097415,9.6317236 6.922416,8.7664942 4.9060133,10.373653 5.3862168,12.280714 c 0.1420053,0.563954 0.801646,1.371693 1.2830315,1.57109 0.3609886,0.149526 0.3217031,-0.0072 0.6091254,2.429651 0.2031504,1.72235 0.4043772,2.138298 1.244911,2.573305 0.7649048,0.395866 1.0930571,0.410288 9.5604083,0.420181 7.149114,0.0084 8.400673,-0.01363 8.952004,-0.157234 z M 12.290123,11.638343 c 2.90402,-0.604157 9.167269,-0.603065 11.858795,0.0021 0.382038,0.08589 0.702985,0.142992 0.713216,0.126884 0.01023,-0.01611 0.209086,-0.463242 0.441899,-0.993634 0.699644,-1.5939222 1.792791,-2.4550667 3.157036,-2.4870081 l 0.607337,-0.01422 -0.06732,-0.5074863 C 28.761076,5.9556602 27.681022,4.4627506 26.109028,3.7673827 25.842644,3.6495479 25.307376,3.5016568 24.919545,3.4387355 24.018595,3.2925666 12.298068,3.2838022 11.413662,3.4286361 9.6002488,3.7256081 8.082932,5.0473853 7.5351908,6.8072811 7.2769252,7.6370899 7.2561222,8.3689722 7.4933891,8.2779243 c 0.2487971,-0.095472 1.2192361,0.1188092 1.759081,0.3884209 0.8623629,0.430685 1.3293009,1.0608961 2.0318399,2.7423098 0.08817,0.211006 0.18403,0.383648 0.213034,0.383648 0.029,0 0.385755,-0.06928 0.792779,-0.15396 z"
     id="path4167"
     inkscape:connector-curvature="0" /></svg>