<?xml version="1.0" encoding="UTF-8" standalone="no"?>
<!-- Generator: Adobe Illustrator 18.1.1, SVG Export Plug-In . SVG Version: 6.00 Build 0)  -->

<svg
   xmlns:dc="http://purl.org/dc/elements/1.1/"
   xmlns:cc="http://creativecommons.org/ns#"
   xmlns:rdf="http://www.w3.org/1999/02/22-rdf-syntax-ns#"
   xmlns:svg="http://www.w3.org/2000/svg"
   xmlns="http://www.w3.org/2000/svg"
   xmlns:sodipodi="http://sodipodi.sourceforge.net/DTD/sodipodi-0.dtd"
   xmlns:inkscape="http://www.inkscape.org/namespaces/inkscape"
   version="1.1"
   id="Capa_1"
   x="0px"
   y="0px"
   viewBox="0 0 400.00001 287.80488"
   xml:space="preserve"
   inkscape:version="0.91 r13725"
   sodipodi:docname="couch.svg"
   width="400"
   height="287.80487"><metadata
     id="metadata49"><rdf:RDF><cc:Work
         rdf:about=""><dc:format>image/svg+xml</dc:format><dc:type
           rdf:resource="http://purl.org/dc/dcmitype/StillImage" /><dc:title></dc:title></cc:Work></rdf:RDF></metadata><defs
     id="defs47" /><sodipodi:namedview
     pagecolor="#ffffff"
     bordercolor="#666666"
     borderopacity="1"
     objecttolerance="10"
     gridtolerance="10"
     guidetolerance="10"
     inkscape:pageopacity="0"
     inkscape:pageshadow="2"
     inkscape:window-width="1600"
     inkscape:window-height="847"
     id="namedview45"
     showgrid="false"
     inkscape:zoom="1"
     inkscape:cx="-1.7837041"
     inkscape:cy="249.10443"
     inkscape:window-x="-8"
     inkscape:window-y="-8"
     inkscape:window-maximized="1"
     inkscape:current-layer="Capa_1"
     fit-margin-top="0"
     fit-margin-left="0"
     fit-margin-right="0"
     fit-margin-bottom="0" /><rect
     style="fill:#ffe300;fill-opacity:0.8;stroke:none;stroke-width:25;stroke-miterlimit:4;stroke-dasharray:none;stroke-opacity:1"
     id="rect4157"
     width="400"
     height="287.80487"
     x="0"
     y="0" /><g
     id="g3"
     transform="matrix(11.230972,0,0,11.230972,60.068759,1.4042969e-5)"><path
       style="fill:#803300"
       d="m 20.813,22.22 c -0.551,0 -1,-0.449 -1,-1 l 0,-1 1,0 c 1.594,0 2,-0.542 2,-0.542 l 0,1.542 c 0,0.551 -0.449,1 -1,1 l -1,0 z"
       id="path5"
       inkscape:connector-curvature="0" /><path
       style="fill:#803300"
       d="m 3.813,22.22 c -0.551,0 -1,-0.449 -1,-1 l 0,-1.542 c 0,0 0.406,0.542 2,0.542 l 1,0 0,1 c 0,0.551 -0.449,1 -1,1 l -1,0 z"
       id="path7"
       inkscape:connector-curvature="0" /><g
       id="g9"><path
         style="fill:#030104"
         d="m 25.626,11.72 c 0,-1.277 -1.036,-2.313 -2.313,-2.313 -0.992,0 -1.832,0.628 -2.16,1.506 l -1.097,2.457 c -0.082,-0.051 -3.399,-1.093 -7.181,-1.093 -3.782,0 -7.23,1.047 -7.314,1.099 L 4.522,11.071 C 4.241,10.113 3.363,9.408 2.313,9.408 1.036,9.408 0,10.443 0,11.721 c 0,1.063 0.722,1.949 1.699,2.22 l 0.428,3.679 c 0.452,1.561 2.686,1.6 2.686,1.6 l 16,0 c 0,0 2.234,-0.039 2.686,-1.602 l 0.428,-3.679 c 0.976,-0.27 1.699,-1.156 1.699,-2.219 z"
         id="path11"
         inkscape:connector-curvature="0" /></g><path
       style="fill:#030104"
       d="m 2.313,8.207 c 1.512,0 2.869,0.998 3.334,2.438 l 0.506,1.125 c 0.979,-0.353 4.499,-0.693 6.723,-0.693 2.163,0 5.633,0.316 6.593,0.666 l 0.575,-1.289 c 0.521,-1.346 1.83,-2.247 3.27,-2.247 0.106,0 0.207,0.022 0.312,0.031 0,-0.006 10e-4,-0.013 10e-4,-0.019 0,-2.658 -2.154,-4.813 -4.813,-4.813 -0.334,0 -11.666,0 -12,0 -2.658,0 -4.813,2.154 -4.813,4.813 0,0.006 10e-4,0.013 10e-4,0.019 C 2.106,8.23 2.207,8.207 2.313,8.207 Z"
       id="path13"
       inkscape:connector-curvature="0" /></g><g
     id="g15"
     transform="matrix(11.230972,0,0,11.230972,60.068759,1.4042969e-5)" /><g
     id="g17"
     transform="matrix(11.230972,0,0,11.230972,60.068759,1.4042969e-5)" /><g
     id="g19"
     transform="matrix(11.230972,0,0,11.230972,60.068759,1.4042969e-5)" /><g
     id="g21"
     transform="matrix(11.230972,0,0,11.230972,60.068759,1.4042969e-5)" /><g
     id="g23"
     transform="matrix(11.230972,0,0,11.230972,60.068759,1.4042969e-5)" /><g
     id="g25"
     transform="matrix(11.230972,0,0,11.230972,60.068759,1.4042969e-5)" /><g
     id="g27"
     transform="matrix(11.230972,0,0,11.230972,60.068759,1.4042969e-5)" /><g
     id="g29"
     transform="matrix(11.230972,0,0,11.230972,60.068759,1.4042969e-5)" /><g
     id="g31"
     transform="matrix(11.230972,0,0,11.230972,60.068759,1.4042969e-5)" /><g
     id="g33"
     transform="matrix(11.230972,0,0,11.230972,60.068759,1.4042969e-5)" /><g
     id="g35"
     transform="matrix(11.230972,0,0,11.230972,60.068759,1.4042969e-5)" /><g
     id="g37"
     transform="matrix(11.230972,0,0,11.230972,60.068759,1.4042969e-5)" /><g
     id="g39"
     transform="matrix(11.230972,0,0,11.230972,60.068759,1.4042969e-5)" /><g
     id="g41"
     transform="matrix(11.230972,0,0,11.230972,60.068759,1.4042969e-5)" /><g
     id="g43"
     transform="matrix(11.230972,0,0,11.230972,60.068759,1.4042969e-5)" /><path
     style="fill:#e05b49;fill-opacity:1"
     d="m 103.74042,213.57281 c -3.14523,-0.86623 -7.645005,-2.76556 -9.999511,-4.22072 -7.472146,-4.61804 -8.81473,-8.29896 -11.592905,-31.78389 -1.388066,-11.73384 -2.967706,-21.48223 -3.510311,-21.6631 -8.132566,-2.71085 -15.927755,-11.47598 -17.280201,-19.43033 -3.50534,-20.61652 17.289853,-36.21858 36.1226,-27.1018 6.696448,3.24169 8.877208,6.39223 17.049798,24.63179 3.67136,8.19373 7.05063,15.2765 7.50948,15.73949 0.4589,0.46294 4.62961,-0.2135 9.26834,-1.50329 4.63874,-1.28979 16.9863,-3.84135 27.43903,-5.67012 16.86391,-2.95044 22.02747,-3.32285 45.83422,-3.30558 28.83686,0.0213 46.46798,2.14357 69.75076,8.39748 5.90538,1.58623 11.07837,2.51406 11.49554,2.06187 0.41712,-0.45216 3.67891,-7.40752 7.2483,-15.45631 7.96372,-17.95773 9.67498,-20.52329 16.2654,-24.38554 14.23451,-8.34197 34.16928,0.52578 37.04762,16.48019 2.07884,11.52283 -2.95542,22.41043 -12.50823,27.05154 -6.10733,2.96717 -5.48458,0.92229 -8.65357,28.41479 -2.65537,23.03662 -5.74831,27.59357 -21.59126,31.81136 -8.98737,2.39265 -191.18573,2.33083 -199.8951,-0.0674 z"
     id="path4177"
     inkscape:connector-curvature="0" /><path
     style="fill:#e05b49;fill-opacity:1"
     d="M 123.59589,118.64961 C 118.80491,108.6421 116.2651,104.85469 112.00318,101.36238 105.23873,95.819424 95.965012,92.195134 88.546315,92.195134 l -5.642632,0 0.807395,-7.0122 c 2.457157,-21.34142 21.538252,-41.3604 43.292472,-45.42039 8.77466,-1.63761 145.16075,-1.63761 153.9354,0 21.84922,4.07773 40.82458,23.98576 43.29246,45.42039 l 0.8074,7.0122 -5.60996,0 c -8.5945,0 -18.71697,4.35983 -25.1805,10.845446 -5.21039,5.22818 -7.81501,9.64979 -13.62058,23.12234 -1.78737,4.14784 -2.75139,5.13137 -4.40685,4.49611 -7.48094,-2.8707 -48.74645,-6.75658 -71.75054,-6.75658 -22.2444,0 -60.92624,3.65351 -72.07042,6.80707 -2.3928,0.67711 -3.30352,-0.57042 -8.80398,-12.05991 z"
     id="path4179"
     inkscape:connector-curvature="0" /><path
     style="fill:#c83737;fill-opacity:1"
     d="M 123.75309,118.24011 C 120.34972,111.62879 115.74125,104.4693 113.51206,102.33013 107.49109,96.552304 97.272319,92.221244 89.62752,92.207044 l -6.416849,-0.0119 0.733382,-5.18293 c 2.348576,-16.59798 11.11271,-30.08589 25.614827,-39.42094 12.74578,-8.20448 12.42423,-8.17663 94.41233,-8.17663 66.18646,0 74.56525,0.21684 81.11282,2.09916 9.28364,2.6689 16.97559,7.57078 24.70593,15.74446 8.43541,8.91922 12.44985,17.32591 14.20841,29.75394 l 0.73338,5.18293 -6.41685,9.6e-4 c -8.48843,0.001 -19.48701,5.20076 -25.79195,12.192946 -2.60752,2.89174 -6.91231,9.89128 -9.5662,15.55454 -4.54274,9.69394 -5.01488,10.25655 -8.06393,9.6093 -17.01635,-3.61217 -35.93923,-4.947 -70.31185,-4.95987 -35.20171,-0.0135 -44.99941,0.67408 -70.24677,4.92757 l -4.39313,0.74013 -6.18798,-12.02059 z"
     id="path4181"
     inkscape:connector-curvature="0" /><path
     style="fill:#c83737;fill-opacity:1"
     d="m 135.06877,214.14617 c -32.43127,-0.77131 -35.157374,-1.17289 -42.250856,-6.22389 -5.586117,-3.97767 -7.079129,-8.42951 -10.253485,-30.57365 -1.640909,-11.44696 -2.983475,-20.9953 -2.983475,-21.21854 0,-0.22327 -1.956183,-1.33416 -4.347075,-2.46871 -5.887171,-2.79365 -12.413513,-11.59789 -13.381344,-18.05185 -2.566649,-17.11564 13.339442,-31.53921 30.295227,-27.47157 8.960678,2.14963 13.641358,7.60026 21.421048,24.94467 3.60187,8.03017 7.16894,15.23055 7.92683,16.00084 1.03584,1.05268 7.1324,0.1706 24.54873,-3.55207 l 23.17073,-4.95261 32.31708,-0.10669 c 34.29111,-0.11299 43.82359,0.75505 65.86829,5.99767 7.03464,1.67297 14.04602,3.33198 15.58085,3.68669 2.55033,0.5894 3.50897,-0.86557 11.1348,-16.89977 9.093,-19.1191 12.09788,-22.5756 21.89191,-25.18219 11.9789,-3.18807 26.2243,5.06031 29.4415,17.04724 2.8137,10.48363 -2.61912,23.40181 -11.65369,27.71009 -5.25675,2.50677 -6.19253,5.0972 -8.4927,23.50942 -3.20061,25.61991 -5.3455,30.34377 -15.86077,34.93135 -4.07686,1.77865 -10.66728,2.26248 -40.83702,2.99804 -41.23624,1.0054 -87.85065,0.96182 -133.53658,-0.12467 z"
     id="path4183"
     inkscape:connector-curvature="0" /><path
     style="fill:#ffe300;fill-opacity:0;stroke:none;stroke-width:25;stroke-miterlimit:4;stroke-dasharray:none;stroke-opacity:1"
     d="m 0.60975909,144.0244 0,-143.29268596 199.39024091,0 199.39026,0 0,143.29268596 0,143.29268 -199.39026,0 -199.39024091,0 0,-143.29268 z M 121.92584,246.59969 c 3.18354,-3.18356 4.70384,-8.94125 4.08269,-15.4621 l -0.39881,-4.18636 -12.80488,-0.68734 c -8.51158,-0.4568 -14.113396,-1.37678 -16.707689,-2.74385 -2.146569,-1.13114 -4.204496,-2.05662 -4.573171,-2.05662 -1.56418,0 -0.583112,18.58246 1.158925,21.95118 2.667833,5.15901 4.969404,6.0193 16.213995,6.06052 9.06518,0.0337 10.41906,-0.2655 13.02894,-2.87543 z m 191.3804,-0.83963 c 2.84973,-3.3867 3.15718,-4.75243 3.15718,-14.02438 0,-5.64977 -0.19003,-10.27229 -0.4224,-10.27229 -0.23236,0 -2.29024,0.94273 -4.57317,2.09507 -2.85159,1.43931 -8.06329,2.24602 -16.65078,2.57735 l -12.5,0.48226 0,7.69495 c 0,6.49919 0.49057,8.27801 3.15718,11.44704 3.08616,3.6677 3.39926,3.75211 13.91599,3.75211 10.51673,0 10.82983,-0.0842 13.91599,-3.75211 z m -9.66908,-31.04965 c 8.70843,-2.26826 14.33454,-5.58776 17.85865,-10.53692 2.13239,-2.99467 3.12832,-7.80536 5.20473,-25.14039 l 2.56776,-21.43708 5.48524,-3.20617 c 14.47417,-8.46025 17.82039,-27.48778 7.00113,-39.81023 -10.36164,-11.80124 -28.19844,-12.17119 -38.98635,-0.80863 -1.83109,1.92863 -6.37075,10.28275 -10.08812,18.56473 -3.71736,8.28196 -7.00986,15.46427 -7.31667,15.96068 -0.30683,0.49641 -5.3708,-0.34041 -11.25335,-1.85956 -35.34886,-9.12883 -73.87777,-11.25618 -108.86627,-6.01099 -12.36089,1.85305 -36.34294,6.87116 -40.37954,8.44921 -1.56485,0.61176 -3.39084,-2.41079 -8.96888,-14.84617 -8.32004,-18.54819 -11.05088,-22.45416 -18.076627,-25.85527 -20.073402,-9.717356 -42.719565,8.33259 -37.326413,29.75074 1.594858,6.33375 9.003264,15.40545 14.409691,17.64487 4.054253,1.67932 3.613039,-0.0809 6.841071,27.28735 2.281576,19.34366 4.541549,24.01516 13.98156,28.90071 8.590628,4.44596 12.276098,4.60794 107.372678,4.71904 80.2915,0.0943 94.34772,-0.15307 100.53971,-1.76589 z m -165.60713,-84.0005 c 32.61497,-6.78527 102.95734,-6.77301 133.18579,0.0236 4.29066,0.96462 7.89521,1.60594 8.01011,1.42503 0.1149,-0.18093 2.34824,-5.20266 4.96296,-11.15948 7.85768,-17.90129 20.13478,-27.572776 35.45658,-27.931516 l 6.82099,-0.1597 -0.75607,-5.69957 c -2.69555,-20.3204 -14.82561,-37.08723 -32.48063,-44.89688 -2.99175,-1.3234 -9.00333,-2.98436 -13.35905,-3.69103 -10.11854,-1.64162 -141.75145,-1.74005 -151.68419,-0.11343 -20.36639,3.33529 -37.407337,18.18013 -43.559003,37.94547 -2.900573,9.31956 -3.134211,17.53931 -0.469473,16.51675 2.794233,-1.07224 13.693206,1.33435 19.756186,4.36235 9.68518,4.837006 14.92934,11.914886 22.81954,30.798796 0.99024,2.3698 2.06684,4.30874 2.39258,4.30874 0.3257,0 4.3324,-0.77808 8.90368,-1.72912 z"
     id="path4159"
     inkscape:connector-curvature="0" /><path
     style="fill:#ffe300;fill-opacity:0;stroke:none;stroke-width:25;stroke-miterlimit:4;stroke-dasharray:none;stroke-opacity:1"
     d="m 0.60975909,144.0244 0,-143.29268596 199.39024091,0 199.39026,0 0,143.29268596 0,143.29268 -199.39026,0 -199.39024091,0 0,-143.29268 z M 121.92584,246.59969 c 3.18354,-3.18356 4.70384,-8.94125 4.08269,-15.4621 l -0.39881,-4.18636 -12.80488,-0.68734 c -8.51158,-0.4568 -14.113396,-1.37678 -16.707689,-2.74385 -2.146569,-1.13114 -4.204496,-2.05662 -4.573171,-2.05662 -1.56418,0 -0.583112,18.58246 1.158925,21.95118 2.667833,5.15901 4.969404,6.0193 16.213995,6.06052 9.06518,0.0337 10.41906,-0.2655 13.02894,-2.87543 z m 191.3804,-0.83963 c 2.84973,-3.3867 3.15718,-4.75243 3.15718,-14.02438 0,-5.64977 -0.19003,-10.27229 -0.4224,-10.27229 -0.23236,0 -2.29024,0.94273 -4.57317,2.09507 -2.85159,1.43931 -8.06329,2.24602 -16.65078,2.57735 l -12.5,0.48226 0,7.69495 c 0,6.49919 0.49057,8.27801 3.15718,11.44704 3.08616,3.6677 3.39926,3.75211 13.91599,3.75211 10.51673,0 10.82983,-0.0842 13.91599,-3.75211 z m -9.66908,-31.04965 c 8.70843,-2.26826 14.33454,-5.58776 17.85865,-10.53692 2.13239,-2.99467 3.12832,-7.80536 5.20473,-25.14039 l 2.56776,-21.43708 5.48524,-3.20617 c 14.47417,-8.46025 17.82039,-27.48778 7.00113,-39.81023 -10.36164,-11.80124 -28.19844,-12.17119 -38.98635,-0.80863 -1.83109,1.92863 -6.37075,10.28275 -10.08812,18.56473 -3.71736,8.28196 -7.00986,15.46427 -7.31667,15.96068 -0.30683,0.49641 -5.3708,-0.34041 -11.25335,-1.85956 -35.34886,-9.12883 -73.87777,-11.25618 -108.86627,-6.01099 -12.36089,1.85305 -36.34294,6.87116 -40.37954,8.44921 -1.56485,0.61176 -3.39084,-2.41079 -8.96888,-14.84617 -8.32004,-18.54819 -11.05088,-22.45416 -18.076627,-25.85527 -20.073402,-9.717356 -42.719565,8.33259 -37.326413,29.75074 1.594858,6.33375 9.003264,15.40545 14.409691,17.64487 4.054253,1.67932 3.613039,-0.0809 6.841071,27.28735 2.281576,19.34366 4.541549,24.01516 13.98156,28.90071 8.590628,4.44596 12.276098,4.60794 107.372678,4.71904 80.2915,0.0943 94.34772,-0.15307 100.53971,-1.76589 z m -165.60713,-84.0005 c 32.61497,-6.78527 102.95734,-6.77301 133.18579,0.0236 4.29066,0.96462 7.89521,1.60594 8.01011,1.42503 0.1149,-0.18093 2.34824,-5.20266 4.96296,-11.15948 7.85768,-17.90129 20.13478,-27.572776 35.45658,-27.931516 l 6.82099,-0.1597 -0.75607,-5.69957 c -2.69555,-20.3204 -14.82561,-37.08723 -32.48063,-44.89688 -2.99175,-1.3234 -9.00333,-2.98436 -13.35905,-3.69103 -10.11854,-1.64162 -141.75145,-1.74005 -151.68419,-0.11343 -20.36639,3.33529 -37.407337,18.18013 -43.559003,37.94547 -2.900573,9.31956 -3.134211,17.53931 -0.469473,16.51675 2.794233,-1.07224 13.693206,1.33435 19.756186,4.36235 9.68518,4.837006 14.92934,11.914886 22.81954,30.798796 0.99024,2.3698 2.06684,4.30874 2.39258,4.30874 0.3257,0 4.3324,-0.77808 8.90368,-1.72912 z"
     id="path4161"
     inkscape:connector-curvature="0" /><path
     style="fill:#ffe300;fill-opacity:0;stroke:none;stroke-width:25;stroke-miterlimit:4;stroke-dasharray:none;stroke-opacity:1"
     d="m 0.60975909,144.0244 0,-143.29268596 199.39024091,0 199.39026,0 0,143.29268596 0,143.29268 -199.39026,0 -199.39024091,0 0,-143.29268 z M 121.92584,246.59969 c 3.18354,-3.18356 4.70384,-8.94125 4.08269,-15.4621 l -0.39881,-4.18636 -12.80488,-0.68734 c -8.51158,-0.4568 -14.113396,-1.37678 -16.707689,-2.74385 -2.146569,-1.13114 -4.204496,-2.05662 -4.573171,-2.05662 -1.56418,0 -0.583112,18.58246 1.158925,21.95118 2.667833,5.15901 4.969404,6.0193 16.213995,6.06052 9.06518,0.0337 10.41906,-0.2655 13.02894,-2.87543 z m 191.3804,-0.83963 c 2.84973,-3.3867 3.15718,-4.75243 3.15718,-14.02438 0,-5.64977 -0.19003,-10.27229 -0.4224,-10.27229 -0.23236,0 -2.29024,0.94273 -4.57317,2.09507 -2.85159,1.43931 -8.06329,2.24602 -16.65078,2.57735 l -12.5,0.48226 0,7.69495 c 0,6.49919 0.49057,8.27801 3.15718,11.44704 3.08616,3.6677 3.39926,3.75211 13.91599,3.75211 10.51673,0 10.82983,-0.0842 13.91599,-3.75211 z m -9.66908,-31.04965 c 8.70843,-2.26826 14.33454,-5.58776 17.85865,-10.53692 2.13239,-2.99467 3.12832,-7.80536 5.20473,-25.14039 l 2.56776,-21.43708 5.48524,-3.20617 c 14.47417,-8.46025 17.82039,-27.48778 7.00113,-39.81023 -10.36164,-11.80124 -28.19844,-12.17119 -38.98635,-0.80863 -1.83109,1.92863 -6.37075,10.28275 -10.08812,18.56473 -3.71736,8.28196 -7.00986,15.46427 -7.31667,15.96068 -0.30683,0.49641 -5.3708,-0.34041 -11.25335,-1.85956 -35.34886,-9.12883 -73.87777,-11.25618 -108.86627,-6.01099 -12.36089,1.85305 -36.34294,6.87116 -40.37954,8.44921 -1.56485,0.61176 -3.39084,-2.41079 -8.96888,-14.84617 -8.32004,-18.54819 -11.05088,-22.45416 -18.076627,-25.85527 -20.073402,-9.717356 -42.719565,8.33259 -37.326413,29.75074 1.594858,6.33375 9.003264,15.40545 14.409691,17.64487 4.054253,1.67932 3.613039,-0.0809 6.841071,27.28735 2.281576,19.34366 4.541549,24.01516 13.98156,28.90071 8.590628,4.44596 12.276098,4.60794 107.372678,4.71904 80.2915,0.0943 94.34772,-0.15307 100.53971,-1.76589 z m -165.60713,-84.0005 c 32.61497,-6.78527 102.95734,-6.77301 133.18579,0.0236 4.29066,0.96462 7.89521,1.60594 8.01011,1.42503 0.1149,-0.18093 2.34824,-5.20266 4.96296,-11.15948 7.85768,-17.90129 20.13478,-27.572776 35.45658,-27.931516 l 6.82099,-0.1597 -0.75607,-5.69957 c -2.69555,-20.3204 -14.82561,-37.08723 -32.48063,-44.89688 -2.99175,-1.3234 -9.00333,-2.98436 -13.35905,-3.69103 -10.11854,-1.64162 -141.75145,-1.74005 -151.68419,-0.11343 -20.36639,3.33529 -37.407337,18.18013 -43.559003,37.94547 -2.900573,9.31956 -3.134211,17.53931 -0.469473,16.51675 2.794233,-1.07224 13.693206,1.33435 19.756186,4.36235 9.68518,4.837006 14.92934,11.914886 22.81954,30.798796 0.99024,2.3698 2.06684,4.30874 2.39258,4.30874 0.3257,0 4.3324,-0.77808 8.90368,-1.72912 z"
     id="path4163"
     inkscape:connector-curvature="0" /><path
     style="fill:#ffe300;fill-opacity:0;stroke:none;stroke-width:25;stroke-miterlimit:4;stroke-dasharray:none;stroke-opacity:1"
     d="m 0.60975909,144.0244 0,-143.29268596 199.39024091,0 199.39026,0 0,143.29268596 0,143.29268 -199.39026,0 -199.39024091,0 0,-143.29268 z M 121.92584,246.59969 c 3.18354,-3.18356 4.70384,-8.94125 4.08269,-15.4621 l -0.39881,-4.18636 -12.80488,-0.68734 c -8.51158,-0.4568 -14.113396,-1.37678 -16.707689,-2.74385 -2.146569,-1.13114 -4.204496,-2.05662 -4.573171,-2.05662 -1.56418,0 -0.583112,18.58246 1.158925,21.95118 2.667833,5.15901 4.969404,6.0193 16.213995,6.06052 9.06518,0.0337 10.41906,-0.2655 13.02894,-2.87543 z m 191.3804,-0.83963 c 2.84973,-3.3867 3.15718,-4.75243 3.15718,-14.02438 0,-5.64977 -0.19003,-10.27229 -0.4224,-10.27229 -0.23236,0 -2.29024,0.94273 -4.57317,2.09507 -2.85159,1.43931 -8.06329,2.24602 -16.65078,2.57735 l -12.5,0.48226 0,7.69495 c 0,6.49919 0.49057,8.27801 3.15718,11.44704 3.08616,3.6677 3.39926,3.75211 13.91599,3.75211 10.51673,0 10.82983,-0.0842 13.91599,-3.75211 z m -9.66908,-31.04965 c 8.70843,-2.26826 14.33454,-5.58776 17.85865,-10.53692 2.13239,-2.99467 3.12832,-7.80536 5.20473,-25.14039 l 2.56776,-21.43708 5.48524,-3.20617 c 14.47417,-8.46025 17.82039,-27.48778 7.00113,-39.81023 -10.36164,-11.80124 -28.19844,-12.17119 -38.98635,-0.80863 -1.83109,1.92863 -6.37075,10.28275 -10.08812,18.56473 -3.71736,8.28196 -7.00986,15.46427 -7.31667,15.96068 -0.30683,0.49641 -5.3708,-0.34041 -11.25335,-1.85956 -35.34886,-9.12883 -73.87777,-11.25618 -108.86627,-6.01099 -12.36089,1.85305 -36.34294,6.87116 -40.37954,8.44921 -1.56485,0.61176 -3.39084,-2.41079 -8.96888,-14.84617 -8.32004,-18.54819 -11.05088,-22.45416 -18.076627,-25.85527 -20.073402,-9.717356 -42.719565,8.33259 -37.326413,29.75074 1.594858,6.33375 9.003264,15.40545 14.409691,17.64487 4.054253,1.67932 3.613039,-0.0809 6.841071,27.28735 2.281576,19.34366 4.541549,24.01516 13.98156,28.90071 8.590628,4.44596 12.276098,4.60794 107.372678,4.71904 80.2915,0.0943 94.34772,-0.15307 100.53971,-1.76589 z m -165.60713,-84.0005 c 32.61497,-6.78527 102.95734,-6.77301 133.18579,0.0236 4.29066,0.96462 7.89521,1.60594 8.01011,1.42503 0.1149,-0.18093 2.34824,-5.20266 4.96296,-11.15948 7.85768,-17.90129 20.13478,-27.572776 35.45658,-27.931516 l 6.82099,-0.1597 -0.75607,-5.69957 c -2.69555,-20.3204 -14.82561,-37.08723 -32.48063,-44.89688 -2.99175,-1.3234 -9.00333,-2.98436 -13.35905,-3.69103 -10.11854,-1.64162 -141.75145,-1.74005 -151.68419,-0.11343 -20.36639,3.33529 -37.407337,18.18013 -43.559003,37.94547 -2.900573,9.31956 -3.134211,17.53931 -0.469473,16.51675 2.794233,-1.07224 13.693206,1.33435 19.756186,4.36235 9.68518,4.837006 14.92934,11.914886 22.81954,30.798796 0.99024,2.3698 2.06684,4.30874 2.39258,4.30874 0.3257,0 4.3324,-0.77808 8.90368,-1.72912 z"
     id="path4165"
     inkscape:connector-curvature="0" /><path
     style="fill:#ffe300;fill-opacity:0;stroke:none;stroke-width:25;stroke-miterlimit:4;stroke-dasharray:none;stroke-opacity:1"
     d="m 0.60975909,144.0244 0,-143.29268596 199.39024091,0 199.39026,0 0,143.29268596 0,143.29268 -199.39026,0 -199.39024091,0 0,-143.29268 z M 121.92584,246.59969 c 3.18354,-3.18356 4.70384,-8.94125 4.08269,-15.4621 l -0.39881,-4.18636 -12.80488,-0.68734 c -8.51158,-0.4568 -14.113396,-1.37678 -16.707689,-2.74385 -2.146569,-1.13114 -4.204496,-2.05662 -4.573171,-2.05662 -1.56418,0 -0.583112,18.58246 1.158925,21.95118 2.667833,5.15901 4.969404,6.0193 16.213995,6.06052 9.06518,0.0337 10.41906,-0.2655 13.02894,-2.87543 z m 191.3804,-0.83963 c 2.84973,-3.3867 3.15718,-4.75243 3.15718,-14.02438 0,-5.64977 -0.19003,-10.27229 -0.4224,-10.27229 -0.23236,0 -2.29024,0.94273 -4.57317,2.09507 -2.85159,1.43931 -8.06329,2.24602 -16.65078,2.57735 l -12.5,0.48226 0,7.69495 c 0,6.49919 0.49057,8.27801 3.15718,11.44704 3.08616,3.6677 3.39926,3.75211 13.91599,3.75211 10.51673,0 10.82983,-0.0842 13.91599,-3.75211 z m -9.66908,-31.04965 c 8.70843,-2.26826 14.33454,-5.58776 17.85865,-10.53692 2.13239,-2.99467 3.12832,-7.80536 5.20473,-25.14039 l 2.56776,-21.43708 5.48524,-3.20617 c 14.47417,-8.46025 17.82039,-27.48778 7.00113,-39.81023 -10.36164,-11.80124 -28.19844,-12.17119 -38.98635,-0.80863 -1.83109,1.92863 -6.37075,10.28275 -10.08812,18.56473 -3.71736,8.28196 -7.00986,15.46427 -7.31667,15.96068 -0.30683,0.49641 -5.3708,-0.34041 -11.25335,-1.85956 -35.34886,-9.12883 -73.87777,-11.25618 -108.86627,-6.01099 -12.36089,1.85305 -36.34294,6.87116 -40.37954,8.44921 -1.56485,0.61176 -3.39084,-2.41079 -8.96888,-14.84617 -8.32004,-18.54819 -11.05088,-22.45416 -18.076627,-25.85527 -20.073402,-9.717356 -42.719565,8.33259 -37.326413,29.75074 1.594858,6.33375 9.003264,15.40545 14.409691,17.64487 4.054253,1.67932 3.613039,-0.0809 6.841071,27.28735 2.281576,19.34366 4.541549,24.01516 13.98156,28.90071 8.590628,4.44596 12.276098,4.60794 107.372678,4.71904 80.2915,0.0943 94.34772,-0.15307 100.53971,-1.76589 z m -165.60713,-84.0005 c 32.61497,-6.78527 102.95734,-6.77301 133.18579,0.0236 4.29066,0.96462 7.89521,1.60594 8.01011,1.42503 0.1149,-0.18093 2.34824,-5.20266 4.96296,-11.15948 7.85768,-17.90129 20.13478,-27.572776 35.45658,-27.931516 l 6.82099,-0.1597 -0.75607,-5.69957 c -2.69555,-20.3204 -14.82561,-37.08723 -32.48063,-44.89688 -2.99175,-1.3234 -9.00333,-2.98436 -13.35905,-3.69103 -10.11854,-1.64162 -141.75145,-1.74005 -151.68419,-0.11343 -20.36639,3.33529 -37.407337,18.18013 -43.559003,37.94547 -2.900573,9.31956 -3.134211,17.53931 -0.469473,16.51675 2.794233,-1.07224 13.693206,1.33435 19.756186,4.36235 9.68518,4.837006 14.92934,11.914886 22.81954,30.798796 0.99024,2.3698 2.06684,4.30874 2.39258,4.30874 0.3257,0 4.3324,-0.77808 8.90368,-1.72912 z"
     id="path4167"
     inkscape:connector-curvature="0" /></svg>