<?xml version="1.0" encoding="UTF-8" standalone="no"?>
<!-- Generator: Adobe Illustrator 16.0.0, SVG Export Plug-In . SVG Version: 6.00 Build 0)  -->

<svg
   xmlns:dc="http://purl.org/dc/elements/1.1/"
   xmlns:cc="http://creativecommons.org/ns#"
   xmlns:rdf="http://www.w3.org/1999/02/22-rdf-syntax-ns#"
   xmlns:svg="http://www.w3.org/2000/svg"
   xmlns="http://www.w3.org/2000/svg"
   xmlns:sodipodi="http://sodipodi.sourceforge.net/DTD/sodipodi-0.dtd"
   xmlns:inkscape="http://www.inkscape.org/namespaces/inkscape"
   version="1.1"
   id="Capa_1"
   x="0px"
   y="0px"
   width="713"
   height="515.45801"
   viewBox="0 0 712.99999 515.458"
   xml:space="preserve"
   inkscape:version="0.91 r13725"
   sodipodi:docname="footsteps.svg"><metadata
     id="metadata41"><rdf:RDF><cc:Work
         rdf:about=""><dc:format>image/svg+xml</dc:format><dc:type
           rdf:resource="http://purl.org/dc/dcmitype/StillImage" /><dc:title></dc:title></cc:Work></rdf:RDF></metadata><defs
     id="defs39" /><sodipodi:namedview
     pagecolor="#ffb33b"
     bordercolor="#666666"
     borderopacity="1"
     objecttolerance="10"
     gridtolerance="10"
     guidetolerance="10"
     inkscape:pageopacity="0.29411765"
     inkscape:pageshadow="2"
     inkscape:window-width="1431"
     inkscape:window-height="790"
     id="namedview37"
     showgrid="false"
     inkscape:zoom="0.45784525"
     inkscape:cx="-64.432254"
     inkscape:cy="257.729"
     inkscape:window-x="0"
     inkscape:window-y="0"
     inkscape:window-maximized="0"
     inkscape:current-layer="Capa_1" /><circle
     style="fill:#000099;fill-opacity:1;stroke:none;stroke-width:25;stroke-miterlimit:4;stroke-dasharray:none;stroke-opacity:1"
     id="path4149"
     cx="362.60107"
     cy="253.32758"
     r="225" /><g
     id="g3"
     transform="matrix(0.67720556,0,0,0.67720556,196.28572,84.629226)"
     style="fill:#ffffff"><path
       d="m 298.794,386.711 c 27.805,9.522 52.357,15.587 87.633,26.427 -13.552,171.236 -175.475,103.233 -87.633,-26.427 z M 443.366,229.409 c -1.826,-51.415 -10.882,-118.86 -83.017,-108.292 -33.815,8.825 -58.8,45.962 -70.551,110.035 -6.454,35.229 -2.701,84.678 4.912,114.32 6.951,20.889 4.587,19.605 12.058,23.572 28.916,6.514 57.542,13.725 86.693,21.078 29.614,-20.913 53.936,-131.94 49.905,-160.713 z m -222.614,-3.946 c 7.607,-29.646 11.36,-79.095 4.909,-114.32 C 213.919,47.067 188.931,9.924 155.11,1.105 82.975,-9.463 73.919,57.981 72.093,109.399 c -4.031,28.768 20.294,139.802 49.911,160.711 29.149,-7.353 57.771,-14.558 86.696,-21.078 7.462,-3.963 5.098,-2.68 12.052,-23.569 z m -91.723,67.669 c 13.547,171.234 175.47,103.231 87.63,-26.427 -27.805,9.523 -52.355,15.587 -87.63,26.427 z"
       id="path5"
       inkscape:connector-curvature="0"
       style="fill:#ffffff" /></g><g
     id="g7"
     transform="matrix(0.67720556,0,0,0.67720556,116.56517,78.629226)" /><g
     id="g9"
     transform="matrix(0.67720556,0,0,0.67720556,116.56517,78.629226)" /><g
     id="g11"
     transform="matrix(0.67720556,0,0,0.67720556,116.56517,78.629226)" /><g
     id="g13"
     transform="matrix(0.67720556,0,0,0.67720556,116.56517,78.629226)" /><g
     id="g15"
     transform="matrix(0.67720556,0,0,0.67720556,116.56517,78.629226)" /><g
     id="g17"
     transform="matrix(0.67720556,0,0,0.67720556,116.56517,78.629226)" /><g
     id="g19"
     transform="matrix(0.67720556,0,0,0.67720556,116.56517,78.629226)" /><g
     id="g21"
     transform="matrix(0.67720556,0,0,0.67720556,116.56517,78.629226)" /><g
     id="g23"
     transform="matrix(0.67720556,0,0,0.67720556,116.56517,78.629226)" /><g
     id="g25"
     transform="matrix(0.67720556,0,0,0.67720556,116.56517,78.629226)" /><g
     id="g27"
     transform="matrix(0.67720556,0,0,0.67720556,116.56517,78.629226)" /><g
     id="g29"
     transform="matrix(0.67720556,0,0,0.67720556,116.56517,78.629226)" /><g
     id="g31"
     transform="matrix(0.67720556,0,0,0.67720556,116.56517,78.629226)" /><g
     id="g33"
     transform="matrix(0.67720556,0,0,0.67720556,116.56517,78.629226)" /><g
     id="g35"
     transform="matrix(0.67720556,0,0,0.67720556,116.56517,78.629226)" /></svg>