<?xml version="1.0" encoding="UTF-8" standalone="no"?>
<!-- Generator: Adobe Illustrator 16.0.0, SVG Export Plug-In . SVG Version: 6.00 Build 0)  -->

<svg
   xmlns:dc="http://purl.org/dc/elements/1.1/"
   xmlns:cc="http://creativecommons.org/ns#"
   xmlns:rdf="http://www.w3.org/1999/02/22-rdf-syntax-ns#"
   xmlns:svg="http://www.w3.org/2000/svg"
   xmlns="http://www.w3.org/2000/svg"
   xmlns:sodipodi="http://sodipodi.sourceforge.net/DTD/sodipodi-0.dtd"
   xmlns:inkscape="http://www.inkscape.org/namespaces/inkscape"
   version="1.1"
   id="Capa_1"
   x="0px"
   y="0px"
   width="400"
   height="289"
   viewBox="0 0 400 289"
   xml:space="preserve"
   inkscape:version="0.91 r13725"
   sodipodi:docname="road29.svg"><metadata
     id="metadata47"><rdf:RDF><cc:Work
         rdf:about=""><dc:format>image/svg+xml</dc:format><dc:type
           rdf:resource="http://purl.org/dc/dcmitype/StillImage" /><dc:title></dc:title></cc:Work></rdf:RDF></metadata><defs
     id="defs45" /><sodipodi:namedview
     pagecolor="#ffffff"
     bordercolor="#666666"
     borderopacity="1"
     objecttolerance="10"
     gridtolerance="10"
     guidetolerance="10"
     inkscape:pageopacity="0"
     inkscape:pageshadow="2"
     inkscape:window-width="1600"
     inkscape:window-height="847"
     id="namedview43"
     showgrid="false"
     inkscape:zoom="0.47219927"
     inkscape:cx="610.97088"
     inkscape:cy="249.8945"
     inkscape:window-x="-8"
     inkscape:window-y="-8"
     inkscape:window-maximized="1"
     inkscape:current-layer="Capa_1" /><g
     id="g3"
     transform="matrix(0.60025331,0,0,0.64476403,51.41475,-17.624979)"><g
       id="g5"><path
         d="m 188.495,189.045 c 0,-51.967 -42.279,-94.246 -94.247,-94.246 C 42.28,94.799 0,137.079 0,189.045 c 0,15.229 3.635,29.623 10.075,42.367 L 94.247,404.99 178.431,231.386 c 6.434,-12.737 10.064,-27.122 10.064,-42.341 z m -94.247,52.157 c -28.759,0 -52.158,-23.397 -52.158,-52.156 0,-28.758 23.399,-52.156 52.158,-52.156 28.758,0 52.155,23.398 52.155,52.156 0,28.758 -23.398,52.156 -52.155,52.156 z"
         id="path7"
         inkscape:connector-curvature="0" /><path
         d="m 442.549,97.469 c -31.564,0 -57.24,25.679 -57.24,57.241 0,9.249 2.207,17.991 6.119,25.731 l 51.121,105.422 51.129,-105.438 c 3.906,-7.737 6.111,-16.474 6.111,-25.716 0,-31.561 -25.678,-57.24 -57.24,-57.24 z m 0,88.918 c -17.467,0 -31.68,-14.211 -31.68,-31.677 0,-17.466 14.213,-31.677 31.68,-31.677 17.465,0 31.676,14.211 31.676,31.677 0,17.466 -14.211,31.677 -31.676,31.677 z"
         id="path9"
         inkscape:connector-curvature="0" /><polygon
         points="235.476,266.984 193.509,353.98 132.624,352.648 107.244,404.99 208.494,402.777 226.397,402.385 231.042,387.424 261.807,288.35 431.311,285.385 418.971,259.939 250.162,256.986 240.382,256.814 "
         id="polygon11" /></g></g><g
     id="g13"
     transform="translate(0,-210.789)" /><g
     id="g15"
     transform="translate(0,-210.789)" /><g
     id="g17"
     transform="translate(0,-210.789)" /><g
     id="g19"
     transform="translate(0,-210.789)" /><g
     id="g21"
     transform="translate(0,-210.789)" /><g
     id="g23"
     transform="translate(0,-210.789)" /><g
     id="g25"
     transform="translate(0,-210.789)" /><g
     id="g27"
     transform="translate(0,-210.789)" /><g
     id="g29"
     transform="translate(0,-210.789)" /><g
     id="g31"
     transform="translate(0,-210.789)" /><g
     id="g33"
     transform="translate(0,-210.789)" /><g
     id="g35"
     transform="translate(0,-210.789)" /><g
     id="g37"
     transform="translate(0,-210.789)" /><g
     id="g39"
     transform="translate(0,-210.789)" /><g
     id="g41"
     transform="translate(0,-210.789)" /></svg>