<?xml version="1.0" encoding="UTF-8" standalone="no"?>
<!-- Generator: Adobe Illustrator 16.0.0, SVG Export Plug-In . SVG Version: 6.00 Build 0)  -->

<svg
   xmlns:dc="http://purl.org/dc/elements/1.1/"
   xmlns:cc="http://creativecommons.org/ns#"
   xmlns:rdf="http://www.w3.org/1999/02/22-rdf-syntax-ns#"
   xmlns:svg="http://www.w3.org/2000/svg"
   xmlns="http://www.w3.org/2000/svg"
   xmlns:sodipodi="http://sodipodi.sourceforge.net/DTD/sodipodi-0.dtd"
   xmlns:inkscape="http://www.inkscape.org/namespaces/inkscape"
   version="1.1"
   id="Capa_1"
   x="0px"
   y="0px"
   width="400"
   height="289"
   viewBox="0 0 400 289"
   xml:space="preserve"
   inkscape:version="0.91 r13725"
   sodipodi:docname="road29.svg"><metadata
     id="metadata47"><rdf:RDF><cc:Work
         rdf:about=""><dc:format>image/svg+xml</dc:format><dc:type
           rdf:resource="http://purl.org/dc/dcmitype/StillImage" /><dc:title /></cc:Work></rdf:RDF></metadata><defs
     id="defs45" /><sodipodi:namedview
     pagecolor="#ffffff"
     bordercolor="#666666"
     borderopacity="1"
     objecttolerance="10"
     gridtolerance="10"
     guidetolerance="10"
     inkscape:pageopacity="0"
     inkscape:pageshadow="2"
     inkscape:window-width="1600"
     inkscape:window-height="847"
     id="namedview43"
     showgrid="false"
     inkscape:zoom="0.47219927"
     inkscape:cx="-13.765364"
     inkscape:cy="249.8945"
     inkscape:window-x="-8"
     inkscape:window-y="-8"
     inkscape:window-maximized="1"
     inkscape:current-layer="Capa_1" /><rect
     style="fill:#aaffaa;fill-opacity:0.8;stroke:none;stroke-width:25;stroke-miterlimit:4;stroke-dasharray:none;stroke-opacity:1"
     id="rect4159"
     width="402.37253"
     height="290.13177"
     x="1.0477179e-007"
     y="-1.1317489" /><g
     id="g3"
     transform="matrix(0.60025331,0,0,0.64476403,51.41475,-17.624979)"
     style="fill:#000000;fill-opacity:1"><g
       id="g5"
       style="fill:#000000;fill-opacity:1"><path
         d="m 188.495,189.045 c 0,-51.967 -42.279,-94.246 -94.247,-94.246 C 42.28,94.799 0,137.079 0,189.045 c 0,15.229 3.635,29.623 10.075,42.367 L 94.247,404.99 178.431,231.386 c 6.434,-12.737 10.064,-27.122 10.064,-42.341 z m -94.247,52.157 c -28.759,0 -52.158,-23.397 -52.158,-52.156 0,-28.758 23.399,-52.156 52.158,-52.156 28.758,0 52.155,23.398 52.155,52.156 0,28.758 -23.398,52.156 -52.155,52.156 z"
         id="path7"
         inkscape:connector-curvature="0"
         style="fill:#000000;fill-opacity:1" /><path
         d="m 442.549,97.469 c -31.564,0 -57.24,25.679 -57.24,57.241 0,9.249 2.207,17.991 6.119,25.731 l 51.121,105.422 51.129,-105.438 c 3.906,-7.737 6.111,-16.474 6.111,-25.716 0,-31.561 -25.678,-57.24 -57.24,-57.24 z m 0,88.918 c -17.467,0 -31.68,-14.211 -31.68,-31.677 0,-17.466 14.213,-31.677 31.68,-31.677 17.465,0 31.676,14.211 31.676,31.677 0,17.466 -14.211,31.677 -31.676,31.677 z"
         id="path9"
         inkscape:connector-curvature="0"
         style="fill:#000000;fill-opacity:1" /><polygon
         points="235.476,266.984 193.509,353.98 132.624,352.648 107.244,404.99 208.494,402.777 226.397,402.385 231.042,387.424 261.807,288.35 431.311,285.385 418.971,259.939 250.162,256.986 240.382,256.814 "
         id="polygon11"
         style="fill:#000000;fill-opacity:1" /></g></g><g
     id="g13"
     transform="translate(0,-210.789)" /><g
     id="g15"
     transform="translate(0,-210.789)" /><g
     id="g17"
     transform="translate(0,-210.789)" /><g
     id="g19"
     transform="translate(0,-210.789)" /><g
     id="g21"
     transform="translate(0,-210.789)" /><g
     id="g23"
     transform="translate(0,-210.789)" /><g
     id="g25"
     transform="translate(0,-210.789)" /><g
     id="g27"
     transform="translate(0,-210.789)" /><g
     id="g29"
     transform="translate(0,-210.789)" /><g
     id="g31"
     transform="translate(0,-210.789)" /><g
     id="g33"
     transform="translate(0,-210.789)" /><g
     id="g35"
     transform="translate(0,-210.789)" /><g
     id="g37"
     transform="translate(0,-210.789)" /><g
     id="g39"
     transform="translate(0,-210.789)" /><g
     id="g41"
     transform="translate(0,-210.789)" /><path
     style="fill:#d40000;fill-opacity:1"
     d="M 80.578669,180.40124 C 54.169585,121.7557 53.281149,119.31142 53.16029,104.96752 52.949695,79.973477 65.150877,59.932553 86.827757,49.667374 122.85889,32.604677 162.88121,61.73913 162.79418,104.96752 c -0.0315,15.64375 0.5228,14.26021 -51.43202,128.37747 l -3.49002,7.66571 -27.293471,-60.60946 z m 48.680931,-51.658 c 12.17481,-12.17482 14.36597,-24.34046 7.04256,-39.101374 C 123.37148,63.579072 93.107616,63.289591 79.808845,89.101492 67.91177,112.19281 83.145483,137.79265 108.78352,137.79265 c 10.62917,0 12.05825,-0.63158 20.47608,-9.04941 z"
     id="path3352"
     inkscape:connector-curvature="0" /><path
     style="fill:#ff6600;fill-opacity:1"
     d="m 312.65287,154.50495 c -2.23147,-5.1151 -9.47807,-21.21252 -16.10357,-35.77205 -13.30477,-29.23725 -15.01767,-40.042925 -8.51856,-53.738774 7.93005,-16.711341 30.75728,-23.567967 45.51489,-13.671329 8.76748,5.87958 16.942,20.892464 16.942,31.114754 0,4.491875 -6.18417,21.149409 -16.14751,43.494579 -8.88114,19.91806 -16.48109,36.58777 -16.88878,37.04382 -0.4077,0.45604 -2.56701,-3.35591 -4.79847,-8.471 z m 16.22176,-55.849205 c 7.67626,-6.459144 9.86034,-15.895521 5.88256,-25.415703 -5.67077,-13.572045 -22.37143,-16.293494 -31.73068,-5.170658 -9.17273,10.901173 -6.99134,26.231479 4.62993,32.538116 8.3562,4.53474 14.14191,4.00254 21.21819,-1.951755 z"
     id="path3354"
     inkscape:connector-curvature="0" /><path
     style="fill:#ff6600;fill-opacity:1"
     d="M 81.691849,180.78883 C 61.460354,135.28245 55.408541,119.54748 54.566558,110.26194 51.421702,75.579919 76.765941,45.867337 109.23647,46.169107 c 35.94546,0.334065 61.65405,40.308302 49.54383,77.035613 -2.87038,8.70517 -48.63332,113.22552 -50.64466,115.66996 -0.22125,0.2689 -12.120961,-25.86973 -26.443791,-58.08585 z m 46.810731,-50.93774 c 4.17534,-4.36786 8.65719,-10.02314 9.95966,-12.56728 6.09811,-11.9115 -1.30035,-33.7999 -14.3576,-42.47713 -21.4402,-14.248134 -50.276412,5.123822 -48.337317,32.47265 1.365008,19.25199 13.942114,30.37255 34.455327,30.4651 9.61815,0.0434 11.44855,-0.74698 18.27993,-7.89334 z"
     id="path3356"
     inkscape:connector-curvature="0" /><path
     style="fill:#e05b49;fill-opacity:1"
     d="M 310.25805,147.12319 C 284.08825,89.888922 281.75291,80.758961 289.46609,65.8376 c 5.98432,-11.576823 15.85647,-17.696367 28.54806,-17.696367 11.39199,0 18.91637,5.074958 25.80316,17.40342 8.55593,15.316496 6.95368,22.401787 -16.77183,74.166407 l -10.10033,22.03704 -6.6871,-14.62491 z m 21.18377,-50.966088 c 5.90535,-6.725823 6.65589,-8.870316 5.67193,-16.206255 -2.49101,-18.571863 -21.64373,-25.686712 -33.48166,-12.437762 -8.53532,9.552677 -8.49455,21.60853 0.10214,30.205218 9.12606,9.126057 18.80278,8.580817 27.70759,-1.561201 z"
     id="path3358"
     inkscape:connector-curvature="0" /><path
     style="fill:#e05b49;fill-opacity:1"
     d="m 305.35169,134.89782 c -12.45057,-27.94295 -19.45543,-47.725136 -19.45543,-54.943403 0,-2.765451 2.16797,-9.127794 4.81772,-14.138542 11.8337,-22.377872 40.90374,-22.485847 52.2761,-0.194169 5.36752,10.521204 5.45962,19.515775 0.35068,34.249347 -4.5929,13.245397 -23.15563,55.110637 -25.54804,57.619477 -0.89003,0.93335 -6.4885,-9.23337 -12.44103,-22.59271 z m 24.57764,-37.228551 c 7.93124,-7.931245 9.03527,-12.371372 5.57721,-22.4302 -6.11974,-17.801148 -27.50723,-19.309026 -35.48286,-2.501641 -5.16728,10.889238 -4.40054,15.908657 3.66168,23.970872 9.31912,9.31912 17.58321,9.62173 26.24397,0.960969 z"
     id="path4160"
     inkscape:connector-curvature="0" /><path
     style="fill:#e05b49;fill-opacity:1"
     d="M 85.700356,188.13956 C 60.994205,132.2146 55.165897,116.34237 55.106175,104.82246 54.912892,67.539652 88.548154,39.571798 122.26979,48.975648 c 14.90053,4.155266 30.90045,20.787907 35.62251,37.031202 5.75101,19.78281 3.55228,30.76525 -14.39561,71.90442 -28.98537,66.43868 -33.97125,77.29788 -35.49043,77.29788 -0.8315,0 -10.869156,-21.18132 -22.305904,-47.06959 z m 43.954094,-59.05823 c 4.55778,-4.79123 9.23839,-11.21398 10.40134,-14.27278 2.66562,-7.01111 0.66143,-18.094649 -5.14921,-28.475971 C 118.25089,56.575398 75.633936,69.902413 75.633936,104.8681 c 0,20.79082 12.387285,32.65187 34.287534,32.83095 10.70216,0.0875 11.9847,-0.47259 19.73298,-8.61772 z"
     id="path4162"
     inkscape:connector-curvature="0" /><path
     style="fill:#e05b49;fill-opacity:1"
     d=""
     id="path4164"
     inkscape:connector-curvature="0" /></svg>