<?xml version="1.0" encoding="UTF-8" standalone="no"?>
<!-- Generator: Adobe Illustrator 16.0.0, SVG Export Plug-In . SVG Version: 6.00 Build 0)  -->

<svg
   xmlns:dc="http://purl.org/dc/elements/1.1/"
   xmlns:cc="http://creativecommons.org/ns#"
   xmlns:rdf="http://www.w3.org/1999/02/22-rdf-syntax-ns#"
   xmlns:svg="http://www.w3.org/2000/svg"
   xmlns="http://www.w3.org/2000/svg"
   xmlns:sodipodi="http://sodipodi.sourceforge.net/DTD/sodipodi-0.dtd"
   xmlns:inkscape="http://www.inkscape.org/namespaces/inkscape"
   version="1.1"
   id="Capa_1"
   x="0px"
   y="0px"
   width="671"
   height="484.996"
   viewBox="0 0 671 484.996"
   xml:space="preserve"
   inkscape:version="0.91 r13725"
   sodipodi:docname="sleeptime.svg"><metadata
     id="metadata58"><rdf:RDF><cc:Work
         rdf:about=""><dc:format>image/svg+xml</dc:format><dc:type
           rdf:resource="http://purl.org/dc/dcmitype/StillImage" /><dc:title></dc:title></cc:Work></rdf:RDF></metadata><defs
     id="defs56" /><sodipodi:namedview
     pagecolor="#ffffff"
     bordercolor="#666666"
     borderopacity="1"
     objecttolerance="10"
     gridtolerance="10"
     guidetolerance="10"
     inkscape:pageopacity="0"
     inkscape:pageshadow="2"
     inkscape:window-width="1286"
     inkscape:window-height="772"
     id="namedview54"
     showgrid="false"
     inkscape:zoom="0.48660195"
     inkscape:cx="242.498"
     inkscape:cy="242.498"
     inkscape:window-x="0"
     inkscape:window-y="0"
     inkscape:window-maximized="0"
     inkscape:current-layer="Capa_1" /><g
     id="g3"
     transform="translate(92,0)"><g
       id="_x34_2_6_"><g
         id="g6"><path
           d="m 446.158,412.594 0,54.941 38.838,0 0,-93.779 -446.158,0 0,-159.139 c 0,-5.055 -1.895,-9.633 -5.684,-13.736 -3.789,-4.103 -8.367,-6.156 -13.735,-6.156 -5.368,0 -9.946,2.053 -13.735,6.156 C 1.895,204.986 0,209.565 0,214.617 l 0,252.918 38.838,0 0,-54.941 407.32,0 0,0 z"
           id="path8"
           inkscape:connector-curvature="0" /><path
           d="m 108.95,316.447 c 9.788,0 18.313,-3.475 25.576,-10.42 7.263,-6.947 10.894,-15.316 10.894,-25.104 0,-9.789 -3.631,-18.155 -10.894,-25.102 -7.263,-6.946 -15.788,-10.421 -25.576,-10.421 -9.787,0 -18.156,3.476 -25.102,10.421 -6.946,6.946 -10.42,15.313 -10.42,25.102 0,9.789 3.474,18.158 10.42,25.104 6.946,6.946 15.315,10.42 25.102,10.42 z"
           id="path10"
           inkscape:connector-curvature="0" /><g
           id="g12"><path
             d="m 134.01,306.5 -49.666,0 c 6.848,6.625 15.049,9.947 24.606,9.947 9.559,0 17.909,-3.322 25.06,-9.947 z"
             id="path14"
             inkscape:connector-curvature="0" /><path
             d="m 475.997,287.082 c -5.372,-4.736 -12.161,-7.736 -20.366,-9 l -281.335,-27.469 -1.895,0 c -5.052,0 -9.314,1.736 -12.788,5.209 -3.474,3.475 -5.21,7.736 -5.21,12.789 l 0,48.553 c -2.054,-4.211 -33.441,7.809 -45.453,7.809 -12.086,0 -22.56,-4.346 -31.13,-12.916 -1.487,-1.488 -2.838,-3.037 -4.07,-4.637 -7.613,2.459 -13.125,9.594 -13.125,18.025 l 0,8.525 c 0,10.463 8.482,18.944 18.945,18.944 l 2.842,0 54.972,0 346.665,0 0,-47.36 c 0,-7.579 -2.685,-13.736 -8.052,-18.472 z"
             id="path16"
             inkscape:connector-curvature="0" /></g><g
           id="g18"><path
             d="m 257.039,17.461 c -38.441,0 -69.605,31.174 -69.605,69.613 0,38.42 31.164,69.584 69.605,69.584 38.433,0 69.587,-31.164 69.587,-69.584 0,-38.439 -31.154,-69.613 -69.587,-69.613 z m 0,118.057 c -26.728,0 -48.475,-21.734 -48.475,-48.447 0,-26.744 21.747,-48.492 48.475,-48.492 26.727,0 48.456,21.752 48.456,48.492 -0.004,26.712 -21.733,48.447 -48.456,48.447 z"
             id="path20"
             inkscape:connector-curvature="0" /><path
             d="m 263.02,83.232 0.004,-26.873 c 0,-3.303 -2.674,-5.969 -5.984,-5.969 -3.325,0 -6.003,2.666 -6.003,5.969 l 0,26.873 0,11.977 0,0.008 11.983,0 0,-0.008 26.875,0.008 c 3.297,0 5.982,-2.674 5.982,-5.99 0,-3.32 -2.688,-5.994 -5.982,-5.994 l -26.875,-0.001 0,0 z"
             id="path22"
             inkscape:connector-curvature="0" /></g></g></g></g><g
     id="g24"
     transform="translate(92,0)" /><g
     id="g26"
     transform="translate(92,0)" /><g
     id="g28"
     transform="translate(92,0)" /><g
     id="g30"
     transform="translate(92,0)" /><g
     id="g32"
     transform="translate(92,0)" /><g
     id="g34"
     transform="translate(92,0)" /><g
     id="g36"
     transform="translate(92,0)" /><g
     id="g38"
     transform="translate(92,0)" /><g
     id="g40"
     transform="translate(92,0)" /><g
     id="g42"
     transform="translate(92,0)" /><g
     id="g44"
     transform="translate(92,0)" /><g
     id="g46"
     transform="translate(92,0)" /><g
     id="g48"
     transform="translate(92,0)" /><g
     id="g50"
     transform="translate(92,0)" /><g
     id="g52"
     transform="translate(92,0)" /><path
     style="fill:#e05b49;fill-opacity:1"
     d="M 328.90165,152.62236 C 298.21828,141.15828 281.1585,117.93243 281.10187,87.545889 280.98818,26.540475 353.32691,-3.9657215 396.8993,38.712584 c 14.06211,13.773564 19.67343,27.745343 19.61234,48.833305 -0.0407,14.045931 -0.98452,19.366901 -4.81772,27.160501 -7.11971,14.47569 -19.56302,27.40904 -32.42476,33.7017 -13.77121,6.73763 -38.15357,8.77771 -50.36751,4.21427 z m 35.07354,-18.97353 c 15.06377,-4.47347 27.62026,-17.24995 32.10111,-32.66355 5.58573,-19.214222 0.33921,-36.923995 -15.06031,-50.836537 -10.73023,-9.694119 -20.46606,-12.692463 -36.92371,-11.371401 -15.64351,1.255712 -26.54378,7.762091 -36.32906,21.684855 -5.0864,7.237059 -6.30144,11.260736 -6.96923,23.079082 -0.69428,12.287026 -0.0412,15.882893 4.61248,25.394581 6.05877,12.38368 15.96981,21.02295 28.67937,24.99928 11.42258,3.57367 17.07363,3.51954 29.88935,-0.28631 z"
     id="path4186"
     inkscape:connector-curvature="0" /><path
     style="fill:#e05b49;fill-opacity:1"
     d="m 343.60734,74.598961 c 0,-19.195935 1.83843,-24.78703 7.44315,-22.636297 2.05281,0.787734 2.83219,5.267772 2.83219,16.27995 l 0,15.193139 13.8717,0.03146 c 15.24113,0.03457 20.26958,1.940578 18.3458,6.95386 -1.04149,2.714089 -4.87124,3.290016 -21.87767,3.290016 l -20.61517,0 0,-19.112131 z"
     id="path4188"
     inkscape:connector-curvature="0" /></svg>